# This file uses meters as units for non-parametric coordinates.

mtllib GetHomewatch.mtl
g default
v -23.172842 -4.403399 -13.697299
v 11.726253 -4.403406 -13.697613
v 11.726424 -4.403602 13.698037
v -23.172668 -4.403594 13.698351
v 24.872721 -4.003776 -12.327364
v 24.871685 -4.003948 12.326476
v 24.872709 -0.495262 -12.327528
v 24.871672 -0.495434 12.326317
v -36.318096 -4.003771 -12.325832
v -36.319130 -4.003943 12.328012
v -36.319141 -0.495429 12.327847
v -36.318111 -0.495257 -12.325994
v -26.091515 -3.233771 18.951056
v -27.619755 -3.142535 18.703957
v -29.019554 -2.886225 17.946301
v -26.088877 2.500903 18.971584
v -27.619814 2.500906 18.709248
v -29.021767 2.500912 17.944368
v 14.645258 -3.233781 18.950781
v 16.173512 -3.142538 18.703627
v 17.573267 -2.886212 17.945784
v 14.642608 2.500894 18.971312
v 16.173573 2.500896 18.708921
v 17.575449 2.500901 17.943850
v -26.089039 2.501175 -18.971054
v -27.619997 2.501173 -18.708662
v -29.021875 2.501168 -17.943581
v 14.642445 2.501166 -18.971329
v 16.173384 2.501163 -18.708990
v 17.575335 2.501158 -17.944098
v -26.091669 -3.233500 -18.950026
v -27.619926 -3.142261 -18.702875
v -29.019663 -2.885946 -17.945042
v 14.645095 -3.233509 -18.950296
v 16.173336 -3.142278 -18.703203
v 17.573135 -2.885979 -17.945560
v 5.183362 2.500917 16.062086
v -22.746565 2.500924 16.062046
v 5.182804 2.501147 -16.061527
v -22.747116 2.501154 -16.061567
v 4.502018 1.711238 14.734280
v -22.065269 1.711238 14.734283
v 4.501508 1.711449 -14.733776
v -22.065783 1.711450 -14.733770
v -27.913778 -60.836452 8.713003
v -27.915443 -60.836666 -8.372931
v -27.955397 -62.531197 8.677145
v -27.954760 -62.530647 -8.337356
v 32.168636 -7.416451 -10.384440
v 37.434505 -17.012520 -10.384733
v 32.167095 -7.414926 10.721040
v 37.434814 -17.010502 10.720746
v 34.581554 -5.892313 -10.384691
v 39.771126 -15.536217 -10.384981
v 34.581318 -5.891264 10.720794
v 39.771317 -15.532818 10.720504
v 37.465893 -26.873980 -10.372504
v 34.276752 -38.046265 -10.185108
v 37.467682 -26.871536 10.708364
v 34.279209 -38.044174 10.521051
v 39.733059 -28.559717 -10.375978
v 36.391411 -39.652966 -10.208813
v 39.734962 -28.557297 10.711309
v 36.393890 -39.650856 10.544247
v 25.790403 -51.603428 -9.414410
v 17.031807 -58.607754 -8.562589
v 25.794964 -51.597252 9.750789
v 17.029406 -58.607491 8.899369
v 27.367344 -53.359207 -9.465327
v 18.454565 -60.183647 -8.635214
v 27.369371 -53.357113 9.801262
v 18.456713 -60.181797 8.971596
v 0.079665 -66.442917 8.066830
v 0.038050 -68.137665 8.066697
v 0.038737 -68.137123 -7.729341
v 0.078057 -66.443153 -7.729215
v -13.489543 -66.442909 8.067400
v -13.491151 -66.443146 -7.728644
v -13.531158 -68.137657 8.067266
v -13.530471 -68.137115 -7.728774
v 24.405149 -3.432850 10.721396
v 24.406334 -3.432703 -10.384084
v 24.406322 -0.518949 -10.384223
v 24.405136 -0.519097 10.721262
v -42.807793 -6.952394 -10.382177
v -48.356606 -16.816174 -10.382017
v -42.808697 -6.954241 10.723308
v -48.355644 -16.818712 10.723466
v -45.838104 -6.178260 10.723280
v -50.998466 -16.184137 10.723420
v -45.837463 -6.176110 -10.382198
v -50.999363 -16.181442 -10.382057
v -48.439564 -27.068464 -10.366412
v -45.334660 -38.079430 -10.162331
v -48.437675 -27.071285 10.707715
v -45.332378 -38.082073 10.503222
v -50.906338 -28.549623 10.712260
v -47.591103 -39.465576 10.530400
v -50.908276 -28.546801 -10.371086
v -47.593391 -39.462921 -10.189652
v -36.853580 -51.673740 -9.328571
v -28.044912 -58.705101 -8.448432
v -36.851727 -51.676277 9.668602
v -28.042889 -58.707359 8.787825
v -38.529881 -53.228161 9.718629
v -29.579588 -60.104382 8.849702
v -38.531734 -53.225616 -9.378767
v -29.581600 -60.102108 -8.510468
v -11.135223 -64.578796 8.067179
v -11.176840 -66.236328 8.067059
v -11.180790 -66.234940 -7.728987
v -11.136831 -64.578163 -7.728859
v 0.105106 -64.578163 -7.729330
v 0.106714 -64.578796 8.066708
v 0.065098 -66.236328 8.066587
v 0.061148 -66.234947 -7.729459
v -35.689850 -3.439749 -10.382450
v -35.691036 -3.439897 10.723035
v -35.691048 -0.526143 10.722896
v -35.689865 -0.525995 -10.382585
vt 0.648822 0.377697
vt 0.648779 0.156508
vt 0.822576 0.156429
vt 0.822618 0.377618
vt 0.927674 0.861702
vt 0.582193 0.781281
vt 0.581348 0.744912
vt 0.841397 0.744963
vt 0.170254 0.968969
vt 0.647065 0.717016
vt 0.647167 0.530278
vt 0.814653 0.530337
vt 0.841968 0.502402
vt 0.580746 0.502482
vt 0.479394 0.964019
vt 0.841929 0.465997
vt 0.614989 0.397407
vt 0.614792 0.136899
vt 0.856408 0.136719
vt 0.856605 0.397227
vt 0.531050 0.693999
vt 0.531053 0.921367
vt 0.484271 0.885776
vt 0.484277 0.729597
vt 0.477190 0.944129
vt 0.443063 0.944112
vt 0.462045 0.885777
vt 0.412069 0.921354
vt 0.412086 0.694007
vt 0.462051 0.729597
vt 0.443069 0.671264
vt 0.477196 0.671246
vt 0.979316 0.591679
vt 0.979333 0.819047
vt 0.932549 0.783459
vt 0.932545 0.627279
vt 0.925469 0.841812
vt 0.891342 0.841793
vt 0.910323 0.783458
vt 0.860350 0.819038
vt 0.860353 0.591691
vt 0.910319 0.627279
vt 0.891337 0.568945
vt 0.925464 0.568929
vt 0.988348 0.823846
vt 0.988331 0.586878
vt 0.927093 0.851895
vt 0.891342 0.851911
vt 0.478820 0.661162
vt 0.443069 0.661147
vt 0.403206 0.689160
vt 0.403188 0.926198
vt 0.851468 0.823883
vt 0.851472 0.586845
vt 0.443063 0.954229
vt 0.478813 0.954212
vt 0.891337 0.558828
vt 0.927087 0.558845
vt 0.540065 0.689198
vt 0.540068 0.926166
vt 0.640942 0.726418
vt 0.820994 0.726448
vt 0.641015 0.520971
vt 0.820753 0.520926
vt 0.814820 0.717133
vt 0.170270 0.782292
vt 0.001969 0.782280
vt 0.001953 0.968957
vt 0.133646 0.781747
vt 0.022524 0.776797
vt 0.023334 0.766075
vt 0.134047 0.770977
vt 0.308169 0.086615
vt 0.303241 0.156410
vt 0.169370 0.146634
vt 0.172914 0.072373
vt 0.007250 0.143458
vt 0.007727 0.068795
vt 0.024744 0.071125
vt 0.022866 0.137980
vt 0.154253 0.140646
vt 0.155719 0.074716
vt 0.300164 0.220702
vt 0.294718 0.296838
vt 0.165018 0.286915
vt 0.167721 0.210994
vt 0.001953 0.285849
vt 0.003894 0.208057
vt 0.018953 0.217696
vt 0.018360 0.289172
vt 0.148888 0.290008
vt 0.152141 0.219490
vt 0.279178 0.401073
vt 0.264865 0.473028
vt 0.155251 0.463453
vt 0.159417 0.389826
vt 0.016590 0.463933
vt 0.008864 0.390391
vt 0.023721 0.391329
vt 0.029294 0.460392
vt 0.142418 0.460306
vt 0.144783 0.390863
vt 0.179008 0.014976
vt 0.313351 0.031725
vt 0.001959 0.014465
vt 0.017620 0.002775
vt 0.162419 0.001953
vt 0.248161 0.589533
vt 0.147450 0.585055
vt 0.037086 0.584630
vt 0.026854 0.582023
vt 0.137194 0.587413
vt 0.245949 0.673777
vt 0.144763 0.675140
vt 0.134260 0.673434
vt 0.034841 0.668363
vt 0.024309 0.669091
vt 0.253617 0.770789
vt 0.144277 0.774375
vt 0.012873 0.768126
vt 0.616045 0.069781
vt 0.614596 0.147070
vt 0.597905 0.146595
vt 0.599667 0.078179
vt 0.316075 0.142101
vt 0.316325 0.069415
vt 0.452597 0.063123
vt 0.450197 0.139420
vt 0.468678 0.072075
vt 0.466624 0.140255
vt 0.613498 0.214908
vt 0.609119 0.291728
vt 0.592499 0.292112
vt 0.596691 0.221696
vt 0.316938 0.284144
vt 0.315386 0.208475
vt 0.447846 0.207547
vt 0.445937 0.282178
vt 0.463963 0.215485
vt 0.462094 0.284558
vt 0.594282 0.395336
vt 0.580031 0.469264
vt 0.568723 0.463302
vt 0.579937 0.393758
vt 0.335865 0.462023
vt 0.325936 0.389612
vt 0.445882 0.385503
vt 0.446431 0.459758
vt 0.460120 0.386002
vt 0.458623 0.455435
vt 0.314047 0.019067
vt 0.449025 0.012657
vt 0.465774 0.001953
vt 0.610850 0.004785
vt 0.625642 0.018257
vt 0.455353 0.578287
vt 0.445107 0.576050
vt 0.556107 0.583066
vt 0.566442 0.581753
vt 0.344131 0.575135
vt 0.441445 0.649247
vt 0.342144 0.645419
vt 0.451988 0.650017
vt 0.555591 0.652983
vt 0.566166 0.652900
vt 0.441016 0.659773
vt 0.341694 0.655932
vt 0.443072 0.651307
vt 0.549766 0.927731
vt 0.580774 0.466074
vt 0.443066 0.964068
vt 0.393489 0.927860
vt 0.393508 0.687497
vt 0.479401 0.651355
vt 0.549763 0.687632
vt 0.841773 0.585182
vt 0.891340 0.548988
vt 0.927669 0.549038
vt 0.841770 0.825545
vt 0.840538 0.781331
vt 0.891345 0.861750
vt 0.998029 0.585311
vt 0.998047 0.825411
vn -0.045912 -0.998051 -0.042266
vn 0.045911 -0.998051 -0.042267
vn 0.045912 -0.998052 0.042252
vn -0.045911 -0.998052 0.042253
vn -0.005765 -0.003533 0.999977
vn 0.005780 -0.003533 0.999977
vn 0.005985 -0.003531 0.999976
vn -0.005971 -0.003531 0.999976
vn 0.000000 1.000000 0.000007
vn 0.000000 1.000000 0.000007
vn 0.000000 1.000000 0.000007
vn 0.000000 1.000000 0.000007
vn -0.005985 -0.003619 -0.999976
vn 0.005971 -0.003619 -0.999976
vn 0.005766 -0.003620 -0.999977
vn -0.005780 -0.003620 -0.999977
vn -0.072699 -0.988077 -0.135716
vn 0.072698 -0.988077 -0.135715
vn 0.072698 -0.988079 0.135702
vn -0.072699 -0.988079 0.135700
vn -0.038115 -0.999273 -0.000008
vn -0.038133 -0.999273 -0.000008
vn -0.151375 -0.988477 -0.000009
vn -0.151375 -0.988476 -0.000009
vn 0.587152 -0.000108 -0.809477
vn 0.583132 -0.000121 -0.812378
vn 0.609921 -0.000034 -0.792462
vn 0.609921 -0.000034 -0.792463
vn 0.263090 0.964771 0.000011
vn 0.263074 0.964776 0.000011
vn 0.379862 0.925043 0.000012
vn 0.379862 0.925043 0.000012
vn 0.583269 -0.000047 0.812279
vn 0.587288 -0.000035 0.809378
vn 0.610065 0.000038 0.792351
vn 0.610065 0.000038 0.792351
vn 0.038116 -0.999273 -0.000006
vn 0.038132 -0.999273 -0.000006
vn 0.151376 -0.988476 -0.000005
vn 0.151376 -0.988476 -0.000005
vn -0.587162 -0.000038 0.809470
vn -0.583144 -0.000050 0.812369
vn -0.609935 0.000034 0.792452
vn -0.609935 0.000034 0.792452
vn -0.263091 0.964771 0.000003
vn -0.263073 0.964776 0.000003
vn -0.379862 0.925043 0.000001
vn -0.379862 0.925043 0.000001
vn -0.583256 -0.000123 -0.812288
vn -0.587277 -0.000111 -0.809386
vn -0.610050 -0.000037 -0.792363
vn -0.610050 -0.000037 -0.792363
vn -0.103297 -0.994651 -0.000007
vn -0.103294 -0.994651 -0.000007
vn -0.313748 -0.001370 0.949505
vn -0.325120 -0.001303 0.945672
vn 0.313819 -0.001369 0.949482
vn 0.325194 -0.001303 0.945646
vn 0.000000 1.000000 0.000007
vn 0.000000 1.000000 0.000007
vn 0.000000 1.000000 0.000007
vn 0.000000 1.000000 0.000007
vn 0.000000 1.000000 0.000007
vn 0.000000 1.000000 0.000007
vn 0.000000 1.000000 0.000007
vn 0.000000 1.000000 0.000007
vn 0.325121 -0.001385 -0.945671
vn 0.313756 -0.001452 -0.949503
vn -0.325196 -0.001386 -0.945646
vn -0.313826 -0.001453 -0.949479
vn 0.103294 -0.994651 -0.000007
vn 0.103297 -0.994651 -0.000007
vn 0.000000 1.000000 0.000007
vn 0.000000 1.000000 0.000007
vn 0.000000 1.000000 0.000007
vn 0.000000 1.000000 0.000007
vn 0.000000 1.000000 0.000007
vn 0.000000 1.000000 0.000007
vn 0.000000 1.000000 0.000007
vn 0.000000 1.000000 0.000007
vn 0.000000 1.000000 0.000007
vn 0.000000 1.000000 0.000007
vn 0.000000 1.000000 0.000007
vn 0.000000 1.000000 0.000007
vn 0.000000 1.000000 0.000007
vn 0.000000 1.000000 0.000007
vn 0.000000 1.000000 0.000007
vn 0.000000 1.000000 0.000007
vn 0.000000 0.859482 -0.511166
vn 0.000000 0.859482 -0.511166
vn 0.000000 0.859482 -0.511166
vn 0.000000 0.859482 -0.511166
vn -0.757148 0.653244 0.000018
vn -0.757148 0.653244 0.000018
vn -0.757148 0.653244 0.000018
vn -0.757148 0.653244 0.000018
vn -0.000000 0.859475 0.511178
vn -0.000000 0.859475 0.511177
vn -0.000000 0.859475 0.511177
vn -0.000000 0.859475 0.511177
vn 0.757152 0.653238 -0.000008
vn 0.757152 0.653238 -0.000008
vn 0.757153 0.653238 -0.000008
vn 0.757152 0.653238 -0.000008
vn -0.999715 0.023875 0.000030
vn -0.999715 0.023875 0.000030
vn -0.999715 0.023875 0.000030
vn -0.999715 0.023875 0.000030
vn -0.721582 -0.692329 0.000008
vn -0.964817 -0.262921 0.000033
vn -0.964809 -0.262954 0.000033
vn -0.721547 -0.692366 0.000008
vn -0.000508 -0.000517 -1.000000
vn -0.000082 -0.000035 -1.000000
vn -0.000085 -0.000031 -1.000000
vn -0.000354 -0.000333 -1.000000
vn 0.000080 0.000034 1.000000
vn -0.000304 -0.000508 1.000000
vn -0.000157 -0.000312 1.000000
vn 0.000083 0.000029 1.000000
vn 0.975105 0.221745 -0.000051
vn 0.698925 0.715195 -0.000027
vn 0.698904 0.715216 -0.000027
vn 0.975093 0.221797 -0.000051
vn -0.989138 0.146992 0.000060
vn -0.906883 0.421384 0.000052
vn -0.906893 0.421362 0.000052
vn -0.989141 0.146969 0.000060
vn -0.029918 -0.019273 -0.999367
vn -0.006209 -0.004986 -0.999968
vn -0.010657 -0.008354 -0.999908
vn -0.034035 -0.021386 -0.999192
vn -0.005996 -0.005014 0.999969
vn -0.029747 -0.019329 0.999371
vn -0.033873 -0.021444 0.999196
vn -0.010452 -0.008395 0.999910
vn 0.897532 -0.440949 -0.000051
vn 0.990509 -0.137446 -0.000059
vn 0.990512 -0.137423 -0.000059
vn 0.897543 -0.440928 -0.000051
vn -0.774630 0.632414 -0.000013
vn -0.508561 0.861026 -0.000056
vn -0.508543 0.861037 -0.000056
vn -0.774678 0.632357 -0.000013
vn -0.058182 -0.009775 -0.998258
vn -0.054622 -0.027394 -0.998131
vn -0.056294 -0.027490 -0.998036
vn -0.061000 -0.013409 -0.998048
vn -0.054462 -0.027475 0.998138
vn -0.058029 -0.009922 0.998266
vn -0.060870 -0.013586 0.998053
vn -0.056166 -0.027577 0.998040
vn 0.484520 -0.874780 0.000018
vn 0.761354 -0.648336 -0.000017
vn 0.761371 -0.648316 -0.000017
vn 0.484538 -0.874770 0.000018
vn -0.456529 -0.889709 -0.000000
vn -0.456528 -0.889709 -0.000000
vn -0.000072 -0.000049 -1.000000
vn -0.000072 -0.000049 -1.000000
vn 0.466912 0.884304 -0.000003
vn 0.466912 0.884304 -0.000003
vn 0.000070 0.000047 1.000000
vn 0.000070 0.000047 1.000000
vn -0.256814 0.966461 -0.000020
vn -0.256832 0.966456 -0.000020
vn -0.049654 0.001213 -0.998766
vn -0.049654 0.001213 -0.998766
vn 0.249350 -0.968414 -0.000002
vn 0.249369 -0.968408 -0.000002
vn -0.049525 0.001034 0.998772
vn -0.049525 0.001034 0.998772
vn 0.202422 0.979298 -0.000034
vn 0.202410 0.979301 -0.000034
vn 0.000042 -0.000080 1.000000
vn 0.000042 -0.000080 1.000000
vn 0.000042 -0.000080 1.000000
vn 0.000042 -0.000080 1.000000
vn -0.202097 -0.979366 -0.000042
vn -0.202079 -0.979369 -0.000042
vn -0.000042 0.000076 -1.000000
vn -0.000042 0.000076 -1.000000
vn -0.000042 0.000076 -1.000000
vn -0.000042 0.000076 -1.000000
vn 0.362280 0.932069 -0.000049
vn 0.362280 0.932069 -0.000049
vn 0.038988 -0.011567 0.999173
vn 0.038988 -0.011567 0.999173
vn 0.038988 -0.011567 0.999173
vn 0.038988 -0.011567 0.999173
vn -0.362280 -0.932070 -0.000046
vn -0.362280 -0.932070 -0.000046
vn 0.038979 -0.011358 -0.999175
vn 0.038979 -0.011358 -0.999175
vn 0.038979 -0.011358 -0.999176
vn 0.038979 -0.011358 -0.999176
vn -0.000004 -0.000037 -1.000000
vn 0.000526 -0.000560 -1.000000
vn 0.000533 -0.000567 -1.000000
vn 0.000002 -0.000026 -1.000000
vn 0.962928 -0.269759 -0.000062
vn 0.726151 -0.687536 -0.000041
vn 0.726180 -0.687505 -0.000041
vn 0.962937 -0.269726 -0.000062
vn 0.000500 -0.000547 1.000000
vn 0.000002 0.000039 1.000000
vn -0.000004 0.000027 1.000000
vn 0.000507 -0.000554 1.000000
vn -0.975246 0.221121 0.000064
vn -0.715029 0.699094 0.000044
vn -0.714999 0.699125 0.000044
vn -0.975239 0.221156 0.000064
vn 0.006506 -0.005935 -0.999961
vn 0.029992 -0.023194 -0.999281
vn 0.032187 -0.024630 -0.999178
vn 0.009983 -0.009006 -0.999910
vn 0.907554 0.419935 -0.000038
vn 0.990276 0.139115 -0.000065
vn 0.990273 0.139138 -0.000065
vn 0.907544 0.419958 -0.000038
vn 0.029967 -0.023258 0.999280
vn 0.006471 -0.005963 0.999961
vn 0.009950 -0.009041 0.999910
vn 0.032163 -0.024695 0.999178
vn -0.896726 -0.442587 0.000034
vn -0.989669 -0.143371 0.000063
vn -0.989673 -0.143347 0.000063
vn -0.896737 -0.442565 0.000034
vn 0.053095 -0.034022 -0.998010
vn 0.051268 -0.013708 -0.998591
vn 0.057097 -0.021454 -0.998138
vn 0.053182 -0.034040 -0.998005
vn 0.460748 0.887531 0.000043
vn 0.775398 0.631473 0.000001
vn 0.775380 0.631494 0.000001
vn 0.460723 0.887544 0.000043
vn 0.051280 -0.013816 0.998589
vn 0.053079 -0.034109 0.998008
vn 0.053166 -0.034127 0.998002
vn 0.057103 -0.021561 0.998136
vn -0.441595 -0.897215 -0.000046
vn -0.762213 -0.647327 -0.000005
vn -0.762230 -0.647306 -0.000005
vn -0.441619 -0.897203 -0.000046
vn 0.442632 -0.896704 -0.000020
vn 0.442632 -0.896704 -0.000020
vn 0.000010 0.000053 1.000000
vn 0.000010 0.000053 1.000000
vn -0.486545 0.873656 0.000027
vn -0.486545 0.873656 0.000027
vn -0.000011 -0.000051 -1.000000
vn -0.000011 -0.000051 -1.000000
vn 0.042021 -0.001513 0.999116
vn 0.042021 -0.001513 0.999116
vn -0.207968 -0.978136 -0.000063
vn -0.207927 -0.978144 -0.000063
vn 0.041998 -0.001400 -0.999117
vn 0.041998 -0.001400 -0.999117
vn 0.209614 0.977784 0.000044
vn 0.209627 0.977781 0.000044
vn 0.146380 0.989228 0.000014
vn 0.146376 0.989229 0.000014
vn 0.000042 -0.000074 1.000000
vn 0.000042 -0.000074 1.000000
vn 0.000042 -0.000074 1.000000
vn 0.000042 -0.000074 1.000000
vn 0.145273 -0.989392 -0.000113
vn 0.145309 -0.989386 -0.000113
vn -0.000042 0.000079 -1.000000
vn -0.000042 0.000079 -1.000000
vn -0.000042 0.000079 -1.000000
vn -0.000042 0.000079 -1.000000
vn 1.000000 0.000004 0.000042
vn 1.000000 0.000004 0.000042
vn 1.000000 0.000004 0.000042
vn 1.000000 0.000004 0.000042
vn -1.000000 -0.000004 -0.000042
vn -1.000000 -0.000004 -0.000042
vn -1.000000 -0.000004 -0.000042
vn -1.000000 -0.000004 -0.000042
s 1
g Watch
usemtl initialShadingGroup
f 1/1/1 2/2/2 3/3/3 4/4/4
s 2
f 13/180/5 19/6/6 22/7/7 16/8/8
s off
f 42/9/9 41/68/10 43/67/11 44/66/12
s 3
f 25/13/13 28/14/14 34/170/15 31/16/16
s 1
f 31/17/17 34/18/18 2/2/2 1/1/1
f 34/18/18 19/19/19 3/3/3 2/2/2
f 19/19/19 13/20/20 4/4/4 3/3/3
f 13/20/20 31/17/17 1/1/1 4/4/4
f 21/21/21 36/22/22 5/23/23 6/24/24
s 3
f 36/25/25 30/26/26 7/27/27 5/23/28
s 6
f 30/28/29 24/29/30 8/30/31 7/27/32
s 2
f 24/31/33 21/32/34 6/24/35 8/30/36
s 1
f 33/33/37 15/34/38 10/35/39 9/36/40
s 2
f 15/37/41 18/38/42 11/39/43 10/35/44
s 10
f 18/40/45 27/41/46 12/42/47 11/39/48
s 3
f 27/43/49 33/44/50 9/36/51 12/42/52
s 1
f 13/183/20 14/45/53 32/46/54 31/182/17
f 14/45/53 15/34/38 33/33/37 32/46/54
s 2
f 15/37/41 14/47/55 17/48/56 18/38/42
f 14/47/55 13/5/5 16/181/8 17/48/56
f 19/174/6 20/49/57 23/50/58 22/168/7
f 20/49/57 21/32/34 24/31/33 23/50/58
s 6
f 22/173/59 23/51/60 29/52/61 28/172/62
f 23/51/60 24/29/30 30/28/29 29/52/61
s 10
f 18/40/45 17/53/63 26/54/64 27/41/46
f 17/53/63 16/179/65 25/176/66 26/54/64
s 3
f 28/171/14 29/55/67 35/56/68 34/15/15
f 29/55/67 30/26/26 36/25/25 35/56/68
f 27/43/49 26/57/69 32/58/70 33/44/50
f 26/57/69 25/177/13 31/178/16 32/58/70
s 1
f 21/21/21 20/59/71 35/60/72 36/22/22
f 20/59/71 19/175/19 34/169/18 35/60/72
s off
f 16/8/73 22/7/74 37/61/75 38/62/76
f 22/7/77 28/14/78 39/63/79 37/61/80
f 28/14/81 25/13/82 40/64/83 39/63/84
f 25/13/85 16/8/86 38/62/87 40/64/88
f 38/62/89 37/61/90 41/10/91 42/65/92
f 37/61/93 39/63/94 43/11/95 41/10/96
f 39/63/97 40/64/98 44/12/99 43/11/100
f 40/64/101 38/62/102 42/65/103 44/12/104
f 45/69/105 46/70/106 48/71/107 47/72/108
s 12
f 49/73/109 50/74/110 52/75/111 51/76/112
s 13
f 50/77/113 49/78/114 53/79/115 54/80/116
s 14
f 51/76/117 52/75/118 56/81/119 55/82/120
s 15
f 54/80/121 53/79/122 55/82/123 56/81/124
s 12
f 57/83/125 58/84/126 60/85/127 59/86/128
s 13
f 58/87/129 57/88/130 61/89/131 62/90/132
s 14
f 59/86/133 60/85/134 64/91/135 63/92/136
s 15
f 62/90/137 61/89/138 63/92/139 64/91/140
s 12
f 65/93/141 66/94/142 68/95/143 67/96/144
s 13
f 66/97/145 65/98/146 69/99/147 70/100/148
s 14
f 67/96/149 68/95/150 72/101/151 71/102/152
s 15
f 70/100/153 69/99/154 71/102/155 72/101/156
s 12
f 81/103/157 82/104/158 49/73/109 51/76/112
s 13
f 82/105/159 83/106/160 53/79/115 49/78/114
s 15
f 83/106/161 84/107/162 55/82/123 53/79/122
s 14
f 84/107/163 81/103/164 51/76/117 55/82/120
s 12
f 52/75/111 50/74/110 57/83/125 59/86/128
s 13
f 50/77/113 54/80/116 61/89/131 57/88/130
s 15
f 54/80/121 56/81/124 63/92/139 61/89/138
s 14
f 56/81/119 52/75/118 59/86/133 63/92/136
s 12
f 60/85/127 58/84/126 65/93/141 67/96/144
s 13
f 58/87/129 62/90/132 69/99/147 65/98/146
s 15
f 62/90/137 64/91/140 71/102/155 69/99/154
s 14
f 64/91/135 60/85/134 67/96/149 71/102/152
s 12
f 68/95/143 66/94/142 76/108/165 73/109/166
s 13
f 66/97/145 70/100/148 75/110/167 76/111/168
s 15
f 70/100/153 72/101/156 74/112/169 75/110/170
s 14
f 72/101/151 68/95/150 73/109/171 74/112/172
s 12
f 73/109/166 76/108/165 78/113/173 77/114/174
s off
f 74/112/175 73/109/176 77/114/177 79/115/178
s 15
f 75/110/170 74/112/169 79/115/179 80/116/180
s off
f 76/111/181 75/110/182 80/116/183 78/117/184
s 12
f 77/114/174 78/113/173 46/118/185 45/119/186
s off
f 79/115/187 77/114/188 45/119/189 47/72/190
s 15
f 80/116/180 79/115/179 47/72/191 48/71/192
s off
f 78/117/193 80/116/194 48/71/195 46/120/196
s 20
f 85/121/197 86/122/198 92/123/199 91/124/200
s 21
f 86/125/201 85/126/202 87/127/203 88/128/204
s 22
f 88/128/205 87/127/206 89/129/207 90/130/208
s 21
f 90/130/209 89/129/210 91/124/211 92/123/212
s 20
f 93/131/213 94/132/214 100/133/215 99/134/216
s 21
f 94/135/217 93/136/218 95/137/219 96/138/220
s 22
f 96/138/221 95/137/222 97/139/223 98/140/224
s 21
f 98/140/225 97/139/226 99/134/227 100/133/228
s 20
f 101/141/229 102/142/230 108/143/231 107/144/232
s 21
f 102/145/233 101/146/234 103/147/235 104/148/236
s 22
f 104/148/237 103/147/238 105/149/239 106/150/240
s 21
f 106/150/241 105/149/242 107/144/243 108/143/244
f 117/151/245 118/152/246 87/127/203 85/126/202
s 22
f 118/152/247 119/153/248 89/129/207 87/127/206
s 21
f 119/153/249 120/154/250 91/124/211 89/129/210
s 20
f 120/154/251 117/155/252 85/121/197 91/124/200
s 21
f 86/125/201 88/128/204 95/137/219 93/136/218
s 22
f 88/128/205 90/130/208 97/139/223 95/137/222
s 21
f 90/130/209 92/123/212 99/134/227 97/139/226
s 20
f 92/123/199 86/122/198 93/131/213 99/134/216
s 21
f 94/135/217 96/138/220 103/147/235 101/146/234
s 22
f 96/138/221 98/140/224 105/149/239 103/147/238
s 21
f 98/140/225 100/133/228 107/144/243 105/149/242
s 20
f 100/133/215 94/132/214 101/141/229 107/144/232
s 22
f 110/156/253 109/157/254 104/148/237 106/150/240
s 21
f 111/158/255 110/156/256 106/150/241 108/143/244
s 20
f 112/159/257 111/158/258 108/143/231 102/142/230
s 21
f 109/157/259 112/160/260 102/145/233 104/148/236
f 112/160/260 109/157/259 114/161/261 113/162/262
s off
f 109/157/263 110/156/264 115/163/265 114/161/266
s 21
f 110/156/256 111/158/255 116/164/267 115/163/268
s off
f 111/158/269 112/159/270 113/165/271 116/164/272
s 21
f 113/162/262 114/161/261 115/166/268 116/167/267
s off
f 6/24/273 5/23/274 7/27/275 8/30/276
f 9/36/277 10/35/278 11/39/279 12/42/280
